<svg id="checkmark-circled" xmlns="http://www.w3.org/2000/svg" width="22" height="22" viewBox="0 0 22 22">
  <path id="checkmark-circled-2" data-name="checkmark-circled" d="M13.25,2.25a11,11,0,1,0,11,11A11,11,0,0,0,13.25,2.25Zm5.642,7.322-6.831,8.765c-.054.054-.142.172-.251.172a.364.364,0,0,1-.251-.142c-.064-.064-3.875-3.727-3.875-3.727l-.073-.073a.256.256,0,0,1,0-.314.639.639,0,0,0,.054-.059c.378-.4,1.144-1.2,1.194-1.252s.118-.147.235-.147.2.1.261.162,2.21,2.127,2.21,2.127l5.466-7.023a.281.281,0,0,1,.172-.068.276.276,0,0,1,.172.064l1.5,1.184a.276.276,0,0,1,.064.172.255.255,0,0,1-.049.162Z" transform="translate(-2.25 -2.25)" opacity="0.2"/>
</svg>
