<svg xmlns="http://www.w3.org/2000/svg" width="19.116" height="19.215" viewBox="0 0 19.116 19.215">
  <path id="search" d="M11.24,6.869A4.21,4.21,0,0,0,9.957,3.781,4.211,4.211,0,0,0,6.869,2.5,4.209,4.209,0,0,0,3.781,3.781,4.209,4.209,0,0,0,2.5,6.869,4.212,4.212,0,0,0,3.781,9.957,4.209,4.209,0,0,0,6.869,11.24,4.208,4.208,0,0,0,9.957,9.957,4.214,4.214,0,0,0,11.24,6.869Zm7.875,11.1a1.266,1.266,0,0,1-1.249,1.249,1.16,1.16,0,0,1-.878-.371l-6.227-6.316a6.681,6.681,0,0,1-3.893,1.21A6.748,6.748,0,0,1,4.2,13.2,6.726,6.726,0,0,1,.542,9.538a6.845,6.845,0,0,1,0-5.337A6.726,6.726,0,0,1,4.2.542a6.845,6.845,0,0,1,5.337,0A6.726,6.726,0,0,1,13.2,4.2a6.739,6.739,0,0,1,.542,2.669,6.68,6.68,0,0,1-1.21,3.893l6.227,6.326A1.2,1.2,0,0,1,19.116,17.966Z" fill="#f8f8f8"/>
</svg>
